<?xml version="1.0" encoding="UTF-8" standalone="no"?>
<svg
   xmlns:dc="http://purl.org/dc/elements/1.1/"
   xmlns:cc="http://creativecommons.org/ns#"
   xmlns:rdf="http://www.w3.org/1999/02/22-rdf-syntax-ns#"
   xmlns:svg="http://www.w3.org/2000/svg"
   xmlns="http://www.w3.org/2000/svg"
   xmlns:xlink="http://www.w3.org/1999/xlink"
   xmlns:sodipodi="http://sodipodi.sourceforge.net/DTD/sodipodi-0.dtd"
   xmlns:inkscape="http://www.inkscape.org/namespaces/inkscape"
   width="1381.9"
   height="1250"
   viewBox="0 0 1381.9 1250"
   id="svg2"
   version="1.1"
   inkscape:version="0.48.4 r9939"
   sodipodi:docname="createi7_4.00GHz.svg">
  <metadata
     id="metadata155">
    <rdf:RDF>
      <cc:Work
         rdf:about="">
        <dc:format>image/svg+xml</dc:format>
        <dc:type
           rdf:resource="http://purl.org/dc/dcmitype/StillImage" />
        <dc:title>Gnuplot</dc:title>
      </cc:Work>
    </rdf:RDF>
  </metadata>
  <defs
     id="defs153" />
  <sodipodi:namedview
     pagecolor="#ffffff"
     bordercolor="#666666"
     borderopacity="1"
     objecttolerance="10"
     gridtolerance="10"
     guidetolerance="10"
     inkscape:pageopacity="0"
     inkscape:pageshadow="2"
     inkscape:window-width="1920"
     inkscape:window-height="1062"
     id="namedview151"
     showgrid="false"
     fit-margin-left="-4.1"
     fit-margin-top="0"
     fit-margin-right="0"
     fit-margin-bottom="0"
     inkscape:zoom="0.3776"
     inkscape:cx="1202.3286"
     inkscape:cy="260.65627"
     inkscape:window-x="0"
     inkscape:window-y="0"
     inkscape:window-maximized="1"
     inkscape:current-layer="svg2" />
  <title
     id="title4">Gnuplot</title>
  <desc
     id="desc6">Produced by GNUPLOT 4.6 patchlevel 4 </desc>
  <g
     id="gnuplot_canvas"
     transform="matrix(1,0,0,1.1080508,-4.1000122,0)">
    <rect
       x="0"
       y="0"
       width="1400"
       height="1250"
       id="rect9"
       style="fill:none" />
    <defs
       id="defs11">
      <circle
         id="gpDot"
         r="0.5"
         cx="0"
         cy="0"
         sodipodi:cx="0"
         sodipodi:cy="0"
         sodipodi:rx="0.5"
         sodipodi:ry="0.5"
         style="stroke-width:0.5" />
      <path
         id="gpPt0"
         d="M -1,0 H 1 M 0,-1 v 2"
         inkscape:connector-curvature="0"
         style="stroke:currentColor;stroke-width:0.222" />
      <path
         id="gpPt1"
         d="M -1,-1 1,1 M 1,-1 -1,1"
         inkscape:connector-curvature="0"
         style="stroke:currentColor;stroke-width:0.222" />
      <path
         id="gpPt2"
         d="M -1,0 1,0 M 0,-1 0,1 m -1,-2 2,2 m -2,0 2,-2"
         inkscape:connector-curvature="0"
         style="stroke:currentColor;stroke-width:0.222" />
      <rect
         id="gpPt3"
         x="-1"
         y="-1"
         width="2"
         height="2"
         style="stroke:currentColor;stroke-width:0.222" />
      <rect
         id="gpPt4"
         x="-1"
         y="-1"
         width="2"
         height="2"
         style="fill:currentColor;stroke:currentColor;stroke-width:0.222" />
      <circle
         id="gpPt5"
         cx="0"
         cy="0"
         r="1"
         sodipodi:cx="0"
         sodipodi:cy="0"
         sodipodi:rx="1"
         sodipodi:ry="1"
         style="stroke:currentColor;stroke-width:0.222" />
      <use
         xlink:href="#gpPt5"
         id="gpPt6"
         style="fill:currentColor;stroke:none"
         x="0"
         y="0"
         width="1400"
         height="1250" />
      <path
         id="gpPt7"
         d="m 0,-1.33 -1.33,2 2.66,0 z"
         inkscape:connector-curvature="0"
         style="stroke:currentColor;stroke-width:0.222" />
      <use
         xlink:href="#gpPt7"
         id="gpPt8"
         style="fill:currentColor;stroke:none"
         x="0"
         y="0"
         width="1400"
         height="1250" />
      <use
         xlink:href="#gpPt7"
         id="gpPt9"
         transform="scale(-1,-1)"
         style="stroke:currentColor"
         x="0"
         y="0"
         width="1400"
         height="1250" />
      <use
         xlink:href="#gpPt9"
         id="gpPt10"
         style="fill:currentColor;stroke:none"
         x="0"
         y="0"
         width="1400"
         height="1250" />
      <use
         xlink:href="#gpPt3"
         id="gpPt11"
         transform="matrix(0.70710678,0.70710678,-0.70710678,0.70710678,0,0)"
         style="stroke:currentColor"
         x="0"
         y="0"
         width="1400"
         height="1250" />
      <use
         xlink:href="#gpPt11"
         id="gpPt12"
         style="fill:currentColor;stroke:none"
         x="0"
         y="0"
         width="1400"
         height="1250" />
    </defs>
    <g
       style="color:#ffffff;fill:none;stroke:#000000;stroke-width:1;stroke-linecap:butt;stroke-linejoin:miter"
       id="g27" />
    <g
       style="color:#000000;fill:none;stroke:currentColor;stroke-width:1;stroke-linecap:butt;stroke-linejoin:miter"
       id="g29">
      <path
         d="m 210,944 9,0 m 1156,0 -9,0 h 0.01"
         id="path31"
         inkscape:connector-curvature="0"
         style="stroke:#000000" />
      <g
         transform="translate(201.7,951.5)"
         style="font-size:25px;text-anchor:end;fill:#000000;stroke:none;font-family:Times-Roman"
         id="g33">
        <text
           id="text35">1.00</text>
      </g>
      <path
         d="m 210,810.1 4.5,0 m 1160.5,0 -4.5,0 M 210,731.7 l 4.5,0 m 1160.5,0 -4.5,0 M 210,676.1 l 4.5,0 m 1160.5,0 -4.5,0 M 210,633 l 4.5,0 m 1160.5,0 -4.5,0 M 210,597.8 l 4.5,0 m 1160.5,0 -4.5,0 M 210,568 l 4.5,0 m 1160.5,0 -4.5,0 M 210,542.2 l 4.5,0 m 1160.5,0 -4.5,0 M 210,519.4 l 4.5,0 m 1160.5,0 -4.5,0 M 210,499 l 9,0 m 1156,0 -9,0 h 0.01"
         id="path37"
         inkscape:connector-curvature="0"
         style="stroke:#000000" />
      <g
         transform="translate(201.7,506.5)"
         style="font-size:25px;text-anchor:end;fill:#000000;stroke:none;font-family:Times-Roman"
         id="g39">
        <text
           id="text41">10.00</text>
      </g>
      <path
         d="m 210,365.1 4.5,0 m 1160.5,0 -4.5,0 M 210,286.8 l 4.5,0 m 1160.5,0 -4.5,0 M 210,231.2 l 4.5,0 m 1160.5,0 -4.5,0 M 210,188 l 4.5,0 m 1160.5,0 -4.5,0 M 210,152.8 l 4.5,0 m 1160.5,0 -4.5,0 M 210,123 l 4.5,0 m 1160.5,0 -4.5,0 M 210,97.2 l 4.5,0 m 1160.5,0 -4.5,0 M 210,74.5 l 4.5,0 m 1160.5,0 -4.5,0 M 210,54.1 l 9,0 m 1156,0 -9,0 h 0.01"
         id="path43"
         inkscape:connector-curvature="0"
         style="stroke:#000000" />
      <g
         transform="translate(201.7,61.6)"
         style="font-size:25px;text-anchor:end;fill:#000000;stroke:none;font-family:Times-Roman"
         id="g45">
        <text
           id="text47">100.00</text>
      </g>
      <path
         d="m 501.3,944 0,-900 m 0,10.1 0,900 h 0.01"
         id="path49"
         inkscape:connector-curvature="0"
         style="stroke:#000000" />
      <g
         transform="matrix(0.70710678,0.70710678,-0.70710678,0.70710678,508.8,952.3)"
         style="font-size:25px;text-anchor:start;fill:#000000;stroke:none;font-family:Times-Roman"
         id="g51">
        <text
           id="text53">100</text>
      </g>
      <path
         d="m 792.5,944 0,-900 m 0,10.1 0,900 h 0.01"
         id="path55"
         inkscape:connector-curvature="0"
         style="stroke:#000000" />
      <g
         transform="matrix(0.70710678,0.70710678,-0.70710678,0.70710678,800,952.3)"
         style="font-size:25px;text-anchor:start;fill:#000000;stroke:none;font-family:Times-Roman"
         id="g57">
        <text
           id="text59">1000</text>
      </g>
      <path
         d="m 1083.8,944 0,-900 m 0,10.1 0,900 h 0.01"
         id="path61"
         inkscape:connector-curvature="0"
         style="stroke:#000000" />
      <g
         transform="matrix(0.70710678,0.70710678,-0.70710678,0.70710678,1091.3,952.3)"
         style="font-size:25px;text-anchor:start;fill:#000000;stroke:none;font-family:Times-Roman"
         id="g63">
        <text
           id="text65">10000</text>
      </g>
      <path
         d="m 210,54.1 0,889.9 1165,0 0,-889.9 -1165,0 z m 0,0 h 0.01"
         id="path67"
         inkscape:connector-curvature="0"
         style="stroke:#000000" />
      <g
         transform="matrix(0,-1,1,0,77.6,499.1)"
         style="font-size:31.25px;text-anchor:middle;fill:#000000;stroke:none;font-family:Times-Roman"
         id="g69">
        <text
           id="text71">Temps en microseconde (us)</text>
      </g>
      <g
         transform="translate(792.5,1045.7)"
         style="font-size:31.25px;text-anchor:middle;fill:#000000;stroke:none;font-family:Times-Roman"
         id="g73">
        <text
           id="text75">Nombre de mesure</text>
      </g>
      <g
         transform="translate(792.5,38.3)"
         style="font-size:37.5px;text-anchor:middle;fill:#000000;stroke:none;font-family:Times-Roman"
         id="g77">
        <text
           id="text79">Création et attente de la terminaison</text>
      </g>
    </g>
    <g
       id="gnuplot_plot_1">
      <title
         id="title82">gnuplot_plot_1</title>
      <g
         style="color:#ff0000;fill:none;stroke:currentColor;stroke-width:1;stroke-linecap:butt;stroke-linejoin:miter"
         id="g84">
        <g
           transform="translate(657.7,1105.5)"
           style="font-size:31.25px;text-anchor:end;fill:#000000;stroke:none;font-family:Arial"
           id="g86">
          <text
             id="text88">Thread</text>
        </g>
        <g
           style="stroke:none"
           id="g90"
           transform="translate(-76,-92)">
          <polygon
             points="784.2,1196.5 784.2,1179.7 742,1179.7 742,1196.5 "
             id="polygon92"
             style="fill:#ff0000" />
        </g>
        <path
           d="m 666,1104.5 42.2,0 0,-16.8 -42.2,0 0,16.8 z m 0,0 h 0.01"
           id="path94"
           inkscape:connector-curvature="0"
           style="stroke:#000000" />
        <g
           style="stroke:none"
           id="g96">
          <polygon
             points="468.5,639.5 468.5,944 534.1,944 534.1,639.5 "
             id="polygon98"
             style="fill:#ff0000" />
        </g>
        <path
           d="m 468.5,944 0,-304.4 65.5,0 0,304.4 -65.5,0 z m 0,0 h 0.01"
           id="path100"
           inkscape:connector-curvature="0"
           style="stroke:#000000" />
        <g
           style="stroke:none"
           id="g102">
          <polygon
             points="759.7,643.4 759.7,944 825.4,944 825.4,643.4 "
             id="polygon104"
             style="fill:#ff0000" />
        </g>
        <path
           d="m 759.7,944 0,-300.5 65.6,0 0,300.5 -65.6,0 z m 0,0 h 0.01"
           id="path106"
           inkscape:connector-curvature="0"
           style="stroke:#000000" />
        <g
           style="stroke:none"
           id="g108">
          <polygon
             points="1051,644.9 1051,944 1116.6,944 1116.6,644.9 "
             id="polygon110"
             style="fill:#ff0000" />
        </g>
        <path
           d="m 1051,944 0,-299 65.5,0 0,299 -65.5,0 z m 0,0 h 0.01"
           id="path112"
           inkscape:connector-curvature="0"
           style="stroke:#000000" />
      </g>
    </g>
    <g
       id="gnuplot_plot_2">
      <title
         id="title115">gnuplot_plot_2</title>
      <g
         style="color:#008000;fill:none;stroke:currentColor;stroke-width:1;stroke-linecap:butt;stroke-linejoin:miter"
         id="g117">
        <g
           transform="translate(1016.6,1197.5)"
           style="font-size:31.25px;text-anchor:end;fill:#000000;stroke:none;font-family:Arial"
           id="g119">
          <text
             id="text121"
             y="-94"
             x="-20">Processus</text>
        </g>
        <g
           style="stroke:none"
           id="g123"
           transform="translate(-20,-94)">
          <polygon
             points="1024.9,1196.5 1067.1,1196.5 1067.1,1179.7 1024.9,1179.7 "
             id="polygon125"
             style="fill:#0000ff" />
        </g>
        <path
           d="m 1004.9,1102.5 42.2,0 0,-16.8 -42.2,0 0,16.8 z m 0,0 h 0.01"
           id="path127"
           inkscape:connector-curvature="0"
           style="stroke:#000000" />
        <g
           style="stroke:none"
           id="g129">
          <polygon
             points="541.3,171.8 541.3,944 606.9,944 606.9,171.8 "
             id="polygon131"
             style="fill:#0000ff" />
        </g>
        <path
           d="m 541.3,944 0,-772.1 65.5,0 0,772.1 -65.5,0 z m 0,0 h 0.01"
           id="path133"
           inkscape:connector-curvature="0"
           style="stroke:#000000" />
        <g
           style="stroke:none"
           id="g135">
          <polygon
             points="832.5,169 832.5,944 898.2,944 898.2,169 "
             id="polygon137"
             style="fill:#0000ff" />
        </g>
        <path
           d="m 832.5,944 0,-774.9 65.6,0 0,774.9 -65.6,0 z m 0,0 h 0.01"
           id="path139"
           inkscape:connector-curvature="0"
           style="stroke:#000000" />
        <g
           style="stroke:none"
           id="g141">
          <polygon
             points="1123.8,178.5 1123.8,944 1189.4,944 1189.4,178.5 "
             id="polygon143"
             style="fill:#0000ff" />
        </g>
        <path
           d="m 1123.8,944 0,-765.4 65.5,0 0,765.4 -65.5,0 z m 0,0 h 0.01"
           id="path145"
           inkscape:connector-curvature="0"
           style="stroke:#000000" />
      </g>
    </g>
    <g
       style="color:#000000;fill:none;stroke:currentColor;stroke-width:1;stroke-linecap:butt;stroke-linejoin:miter"
       id="g147">
      <path
         d="m 210,54.1 0,889.9 1165,0 0,-889.9 -1165,0 z m 0,0 h 0.01"
         id="path149"
         inkscape:connector-curvature="0"
         style="stroke:#000000" />
    </g>
  </g>
</svg>
