<?xml version="1.0" encoding="UTF-8" standalone="no"?>
<svg
   xmlns:dc="http://purl.org/dc/elements/1.1/"
   xmlns:cc="http://creativecommons.org/ns#"
   xmlns:rdf="http://www.w3.org/1999/02/22-rdf-syntax-ns#"
   xmlns:svg="http://www.w3.org/2000/svg"
   xmlns="http://www.w3.org/2000/svg"
   xmlns:xlink="http://www.w3.org/1999/xlink"
   xmlns:sodipodi="http://sodipodi.sourceforge.net/DTD/sodipodi-0.dtd"
   xmlns:inkscape="http://www.inkscape.org/namespaces/inkscape"
   width="1400"
   height="1250"
   viewBox="0 0 1400 1250"
   id="svg2"
   version="1.1"
   inkscape:version="0.91 r13725"
   sodipodi:docname="memoirei5_2.30GHz.svg">
  <metadata
     id="metadata248">
    <rdf:RDF>
      <cc:Work
         rdf:about="">
        <dc:format>image/svg+xml</dc:format>
        <dc:type
           rdf:resource="http://purl.org/dc/dcmitype/StillImage" />
      </cc:Work>
    </rdf:RDF>
  </metadata>
  <defs
     id="defs246" />
  <sodipodi:namedview
     pagecolor="#ffffff"
     bordercolor="#666666"
     borderopacity="1"
     objecttolerance="10"
     gridtolerance="10"
     guidetolerance="10"
     inkscape:pageopacity="0"
     inkscape:pageshadow="2"
     inkscape:window-width="1855"
     inkscape:window-height="1056"
     id="namedview244"
     showgrid="false"
     inkscape:zoom="0.53400704"
     inkscape:cx="363.75561"
     inkscape:cy="535.29408"
     inkscape:window-x="65"
     inkscape:window-y="24"
     inkscape:window-maximized="1"
     inkscape:current-layer="g90" />
  <title
     id="title4">Gnuplot</title>
  <desc
     id="desc6">Produced by GNUPLOT 4.6 patchlevel 4 </desc>
  <g
     id="gnuplot_canvas">
    <rect
       x="0"
       y="0"
       width="1400"
       height="1342.2074"
       id="rect9"
       style="fill:none" />
    <defs
       id="defs11">
      <circle
         id="gpDot"
         r="0.5"
         stroke-width="0.5" />
      <path
         id="gpPt0"
         stroke-width="0.222"
         stroke="currentColor"
         d="M-1,0 h2 M0,-1 v2" />
      <path
         id="gpPt1"
         stroke-width="0.222"
         stroke="currentColor"
         d="M-1,-1 L1,1 M1,-1 L-1,1" />
      <path
         id="gpPt2"
         stroke-width="0.222"
         stroke="currentColor"
         d="M-1,0 L1,0 M0,-1 L0,1 M-1,-1 L1,1 M-1,1 L1,-1" />
      <rect
         id="gpPt3"
         stroke-width="0.222"
         stroke="currentColor"
         x="-1"
         y="-1"
         width="2"
         height="2" />
      <rect
         id="gpPt4"
         stroke-width="0.222"
         stroke="currentColor"
         fill="currentColor"
         x="-1"
         y="-1"
         width="2"
         height="2" />
      <circle
         id="gpPt5"
         stroke-width="0.222"
         stroke="currentColor"
         cx="0"
         cy="0"
         r="1" />
      <use
         xlink:href="#gpPt5"
         id="gpPt6"
         fill="currentColor"
         stroke="none" />
      <path
         id="gpPt7"
         stroke-width="0.222"
         stroke="currentColor"
         d="M0,-1.33 L-1.33,0.67 L1.33,0.67 z" />
      <use
         xlink:href="#gpPt7"
         id="gpPt8"
         fill="currentColor"
         stroke="none" />
      <use
         xlink:href="#gpPt7"
         id="gpPt9"
         stroke="currentColor"
         transform="rotate(180)" />
      <use
         xlink:href="#gpPt9"
         id="gpPt10"
         fill="currentColor"
         stroke="none" />
      <use
         xlink:href="#gpPt3"
         id="gpPt11"
         stroke="currentColor"
         transform="rotate(45)" />
      <use
         xlink:href="#gpPt11"
         id="gpPt12"
         fill="currentColor"
         stroke="none" />
    </defs>
    <g
       style="fill:none; color:white; stroke:black; stroke-width:1.00; stroke-linecap:butt; stroke-linejoin:miter"
       id="g27" />
    <g
       style="color:#000000;fill:none;stroke:currentColor;stroke-width:1;stroke-linecap:butt;stroke-linejoin:miter"
       id="g29"
       transform="matrix(1.0699007,0,0,1.0737659,-96.113459,0)">
      <path
         d="m 210,944 9,0 m 1156,0 -9,0 h 0.01"
         id="path31"
         inkscape:connector-curvature="0"
         style="stroke:#000000" />
      <g
         transform="translate(201.7,951.5)"
         style="font-size:25px;text-anchor:end;fill:#000000;stroke:none;font-family:Times-Roman"
         id="g33">
        <text
           id="text35">0.01</text>
      </g>
      <path
         d="m 210,676.1 4.5,0 m 1160.5,0 -4.5,0 M 210,519.4 l 4.5,0 m 1160.5,0 -4.5,0 M 210,408.2 l 4.5,0 m 1160.5,0 -4.5,0 M 210,322 l 4.5,0 m 1160.5,0 -4.5,0 M 210,251.5 l 4.5,0 m 1160.5,0 -4.5,0 M 210,191.9 l 4.5,0 m 1160.5,0 -4.5,0 M 210,140.3 l 4.5,0 m 1160.5,0 -4.5,0 M 210,94.8 l 4.5,0 m 1160.5,0 -4.5,0 M 210,54.1 l 9,0 m 1156,0 -9,0 h 0.01"
         id="path37"
         inkscape:connector-curvature="0"
         style="stroke:#000000" />
      <g
         transform="translate(201.7,61.6)"
         style="font-size:25px;text-anchor:end;fill:#000000;stroke:none;font-family:Times-Roman"
         id="g39">
        <text
           id="text41">0.10</text>
      </g>
      <path
         d="m 501.3,944 0,-900 m 0,10.1 0,900 h 0.01"
         id="path43"
         inkscape:connector-curvature="0"
         style="stroke:#000000" />
      <g
         transform="matrix(0.70710678,0.70710678,-0.70710678,0.70710678,508.8,952.3)"
         style="font-size:25px;text-anchor:start;fill:#000000;stroke:none;font-family:Times-Roman"
         id="g45">
        <text
           id="text47">100</text>
      </g>
      <path
         d="m 792.5,944 0,-900 m 0,10.1 0,900 h 0.01"
         id="path49"
         inkscape:connector-curvature="0"
         style="stroke:#000000" />
      <g
         transform="matrix(0.70710678,0.70710678,-0.70710678,0.70710678,800,952.3)"
         style="font-size:25px;text-anchor:start;fill:#000000;stroke:none;font-family:Times-Roman"
         id="g51">
        <text
           id="text53">1000</text>
      </g>
      <path
         d="m 1083.8,944 0,-900 m 0,10.1 0,900 h 0.01"
         id="path55"
         inkscape:connector-curvature="0"
         style="stroke:#000000" />
      <g
         transform="matrix(0.70710678,0.70710678,-0.70710678,0.70710678,1091.3,952.3)"
         style="font-size:25px;text-anchor:start;fill:#000000;stroke:none;font-family:Times-Roman"
         id="g57">
        <text
           id="text59">10000</text>
      </g>
      <path
         d="m 210,54.1 0,889.9 1165,0 0,-889.9 -1165,0 z m 0,0 h 0.01"
         id="path61"
         inkscape:connector-curvature="0"
         style="stroke:#000000" />
      <g
         transform="matrix(0,-1,1,0,132.2,499.1)"
         style="font-size:31.25px;text-anchor:middle;fill:#000000;stroke:none;font-family:Times-Roman"
         id="g63">
        <text
           id="text65">Temps en microseconde (us)</text>
      </g>
      <g
         transform="translate(792.5,1045.7)"
         style="font-size:31.25px;text-anchor:middle;fill:#000000;stroke:none;font-family:Times-Roman"
         id="g67">
        <text
           id="text69">Nombre de mesure</text>
      </g>
      <g
         transform="translate(792.5,38.3)"
         style="font-size:37.5px;text-anchor:middle;fill:#000000;stroke:none;font-family:Times-Roman"
         id="g71">
        <text
           id="text73">Allocation mémoire</text>
      </g>
    </g>
    <g
       id="gnuplot_plot_1"
       transform="matrix(1.0699007,0,0,1.0737659,-96.113459,0)">
      <title
         id="title76">gnuplot_plot_1</title>
      <g
         style="color:#ff0000;fill:none;stroke:currentColor;stroke-width:1;stroke-linecap:butt;stroke-linejoin:miter"
         id="g78"
         transform="matrix(0.99988775,0,0,1.245275,0.08195306,-232.63714)">
        <g
           transform="translate(584,1083.8688)"
           style="font-size:31.25px;font-family:Arial;text-anchor:end;fill:#000000;stroke:none"
           id="g80">
          <text
             id="text82">1octet</text>
        </g>
        <g
           style="stroke:none"
           id="g84"
           transform="translate(0,-79.931792)">
          <polygon
             points="634.5,1146 592.3,1146 592.3,1162.8 634.5,1162.8 "
             id="polygon86"
             style="fill:#ff0000" />
        </g>
        <path
           d="m 592.3,1082.8688 42.2,0 0,-16.8 -42.2,0 0,16.8 z m 0,0 0.01,0"
           id="path88"
           inkscape:connector-curvature="0"
           style="stroke:#000000" />
        <g
           style="stroke:none"
           id="g90">
          <polygon
             points="420.1,944 457.7,944 457.7,702.9 420.1,702.9 "
             id="polygon92"
             style="fill:#ff0000"
             transform="matrix(1.0030305,0,0,0.78548579,-1.3299393,202.56141)" />
        </g>
        <path
           d="m 420.04317,944.05999 0,-189.30208 37.61366,0 0,189.30208 -37.61366,0 z m 0,0 0.0101,0"
           id="path94"
           inkscape:connector-curvature="0"
           style="stroke:#000000;stroke-width:0.8876183" />
        <g
           style="stroke:none"
           id="g96">
          <polygon
             points="748.9,737.8 711.4,737.8 711.4,944 748.9,944 "
             id="polygon98"
             style="fill:#ff0000" />
        </g>
        <path
           d="m 711.4,944 0,-206.1 37.4,0 0,206.1 -37.4,0 z m 0,0 0.01,0"
           id="path100"
           inkscape:connector-curvature="0"
           style="stroke:#000000" />
        <g
           style="stroke:none"
           id="g102">
          <polygon
             points="1040.2,735 1002.6,735 1002.6,944 1040.2,944 "
             id="polygon104"
             style="fill:#ff0000" />
        </g>
        <path
           d="m 1002.6,944 0,-208.9 37.5,0 0,208.9 -37.5,0 z m 0,0 0.01,0"
           id="path106"
           inkscape:connector-curvature="0"
           style="stroke:#000000" />
      </g>
    </g>
    <g
       id="gnuplot_plot_2"
       transform="matrix(1.0698766,0,0,1.1513438,-96.095012,-72.881235)">
      <title
         id="title109">gnuplot_plot_2</title>
      <g
         style="color:#008000;fill:none;stroke:currentColor;stroke-width:1;stroke-linecap:butt;stroke-linejoin:miter"
         id="g111">
        <g
           transform="translate(584,1145.5)"
           style="font-size:31.25px;font-family:Arial;text-anchor:end;fill:#000000;stroke:none"
           id="g113">
          <text
             id="text115">256octets</text>
        </g>
        <g
           style="stroke:none"
           id="g117"
           transform="translate(0,-52)">
          <polygon
             points="634.5,1196.5 634.5,1179.7 592.3,1179.7 592.3,1196.5 "
             id="polygon119"
             style="fill:#ff8000" />
        </g>
        <path
           d="m 592.3,1144.5 42.2,0 0,-16.8 -42.2,0 0,16.8 z m 0,0 0.01,0"
           id="path121"
           inkscape:connector-curvature="0"
           style="stroke:#000000" />
        <g
           style="stroke:none"
           id="g123">
          <polygon
             points="461.7,399 461.7,944 499.3,944 499.3,399 "
             id="polygon125"
             style="fill:#ff8000" />
        </g>
        <path
           d="m 461.7,944 0,-544.9 37.5,0 0,544.9 -37.5,0 z m 0,0 0.01,0"
           id="path127"
           inkscape:connector-curvature="0"
           style="stroke:#000000" />
        <g
           style="stroke:none"
           id="g129">
          <polygon
             points="753,397.7 753,944 790.5,944 790.5,397.7 "
             id="polygon131"
             style="fill:#ff8000" />
        </g>
        <path
           d="m 753,944 0,-546.2 37.4,0 0,546.2 -37.4,0 z m 0,0 0.01,0"
           id="path133"
           inkscape:connector-curvature="0"
           style="stroke:#000000" />
        <g
           style="stroke:none"
           id="g135">
          <polygon
             points="1044.2,412.8 1044.2,944 1081.8,944 1081.8,412.8 "
             id="polygon137"
             style="fill:#ff8000" />
        </g>
        <path
           d="m 1044.2,944 0,-531.1 37.5,0 0,531.1 -37.5,0 z m 0,0 0.01,0"
           id="path139"
           inkscape:connector-curvature="0"
           style="stroke:#000000" />
      </g>
    </g>
    <g
       id="gnuplot_plot_3"
       transform="matrix(1.0698373,0,0,1.2090594,-96.061948,-129.08736)">
      <title
         id="title142">gnuplot_plot_3</title>
      <g
         style="color:#0000ff;fill:none;stroke:currentColor;stroke-width:1;stroke-linecap:butt;stroke-linejoin:miter"
         id="g144">
        <g
           transform="translate(883.5,1101.8)"
           style="font-size:31.25px;font-family:Arial;text-anchor:end;fill:#000000;stroke:none"
           id="g146">
          <text
             id="text148">1024octets</text>
        </g>
        <g
           style="stroke:none"
           id="g150"
           transform="translate(0,-62)">
          <polygon
             points="934,1162.8 934,1146 891.8,1146 891.8,1162.8 "
             id="polygon152"
             style="fill:#006400" />
        </g>
        <path
           d="m 891.8,1100.8 42.2,0 0,-16.8 -42.2,0 0,16.8 z m 0,0 0.01,0"
           id="path154"
           inkscape:connector-curvature="0"
           style="stroke:#000000" />
        <g
           style="stroke:none"
           id="g156">
          <polygon
             points="540.9,396.3 503.3,396.3 503.3,944 540.9,944 "
             id="polygon158"
             style="fill:#006400" />
        </g>
        <path
           d="m 503.3,944 0,-547.6 37.5,0 0,547.6 -37.5,0 z m 0,0 0.01,0"
           id="path160"
           inkscape:connector-curvature="0"
           style="stroke:#000000" />
        <g
           style="stroke:none"
           id="g162">
          <polygon
             points="832.1,396.9 794.6,396.9 794.6,944 832.1,944 "
             id="polygon164"
             style="fill:#006400" />
        </g>
        <path
           d="m 794.6,944 0,-547 37.4,0 0,547 -37.4,0 z m 0,0 0.01,0"
           id="path166"
           inkscape:connector-curvature="0"
           style="stroke:#000000" />
        <g
           style="stroke:none"
           id="g168">
          <polygon
             points="1123.4,412.1 1085.8,412.1 1085.8,944 1123.4,944 "
             id="polygon170"
             style="fill:#006400" />
        </g>
        <path
           d="m 1085.8,944 0,-531.8 37.5,0 0,531.8 -37.5,0 z m 0,0 0.01,0"
           id="path172"
           inkscape:connector-curvature="0"
           style="stroke:#000000" />
      </g>
    </g>
    <g
       id="gnuplot_plot_4"
       transform="matrix(1.0699007,0,0,1.0737659,-96.113459,0)">
      <title
         id="title175">gnuplot_plot_4</title>
      <g
         style="color:#00ffff;fill:none;stroke:currentColor;stroke-width:1;stroke-linecap:butt;stroke-linejoin:miter"
         id="g177"
         transform="matrix(0.9999636,0,0,1.0765944,0.03111913,-74.711603)">
        <g
           transform="translate(883.5,1145.5)"
           style="font-size:31.25px;font-family:Arial;text-anchor:end;fill:#000000;stroke:none"
           id="g179">
          <text
             id="text181">4096octets</text>
        </g>
        <g
           style="stroke:none"
           id="g183"
           transform="translate(0,-52)">
          <polygon
             points="891.8,1179.7 891.8,1196.5 934,1196.5 934,1179.7 "
             id="polygon185"
             style="fill:#0000ff" />
        </g>
        <path
           d="m 891.8,1144.5 42.2,0 0,-16.8 -42.2,0 0,16.8 z m 0,0 0.01,0"
           id="path187"
           inkscape:connector-curvature="0"
           style="stroke:#000000" />
        <g
           style="stroke:none"
           id="g189">
          <polygon
             points="544.9,394.5 544.9,944 582.5,944 582.5,394.5 "
             id="polygon191"
             style="fill:#0000ff" />
        </g>
        <path
           d="m 544.9,944 0,-549.4 37.5,0 0,549.4 -37.5,0 z m 0,0 0.01,0"
           id="path193"
           inkscape:connector-curvature="0"
           style="stroke:#000000" />
        <g
           style="stroke:none"
           id="g195">
          <polygon
             points="836.2,396.7 836.2,944 873.7,944 873.7,396.7 "
             id="polygon197"
             style="fill:#0000ff" />
        </g>
        <path
           d="m 836.2,944 0,-547.2 37.4,0 0,547.2 -37.4,0 z m 0,0 0.01,0"
           id="path199"
           inkscape:connector-curvature="0"
           style="stroke:#000000" />
        <g
           style="stroke:none"
           id="g201">
          <polygon
             points="1127.4,413.8 1127.4,944 1165,944 1165,413.8 "
             id="polygon203"
             style="fill:#0000ff" />
        </g>
        <path
           d="m 1127.4,944 0,-530.1 37.5,0 0,530.1 -37.5,0 z m 0,0 0.01,0"
           id="path205"
           inkscape:connector-curvature="0"
           style="stroke:#000000" />
      </g>
    </g>
    <g
       id="gnuplot_plot_5">
      <title
         id="title208">gnuplot_plot_5</title>
      <g
         style="fill:none; color:#157545; stroke:currentColor; stroke-width:1.00; stroke-linecap:butt; stroke-linejoin:miter"
         id="g210">
        <g
           transform="matrix(1.0699007,0,0,1.0737659,1169.5791,1185.2228)"
           style="font-size:31.25px;text-anchor:end;fill:#000000;stroke:none;font-family:Arial"
           id="g212">
          <text
             id="text214">12800octets</text>
        </g>
        <g
           style="stroke:none"
           id="g216"
           transform="matrix(1.0699007,0,0,1.0737659,-96.113459,-64.425956)">
          <polygon
             points="1191.3,1162.8 1233.5,1162.8 1233.5,1146 1191.3,1146 "
             id="polygon218"
             style="fill:#ff00ff" />
        </g>
        <path
           d="m 1178.4592,1184.1491 45.1499,0 0,-18.0393 -45.1499,0 0,18.0393 z m 0,0 h 0.011"
           id="path220"
           inkscape:connector-curvature="0"
           style="stroke:#000000;stroke-width:1.07183158" />
        <g
           style="stroke:none"
           id="g222"
           transform="matrix(1.0699007,0,0,1.0737659,-96.113459,0)">
          <polygon
             points="624.1,393.9 586.5,393.9 586.5,944 624.1,944 "
             id="polygon224"
             style="fill:#ff00ff" />
        </g>
        <path
           d="m 531.3833,1013.635 0,-590.57122 40.12128,0 0,590.57122 -40.12128,0 z m 0,0 h 0.0107"
           id="path226"
           inkscape:connector-curvature="0"
           style="stroke:#000000;stroke-width:1.07183158" />
        <g
           style="stroke:none"
           id="g228"
           transform="matrix(1.0699007,0,0,1.0737659,-96.113459,0)">
          <polygon
             points="915.3,391.6 877.8,391.6 877.8,944 915.3,944 "
             id="polygon230"
             style="fill:#ff00ff" />
        </g>
        <path
           d="m 843.04537,1013.635 0,-593.04088 40.01429,0 0,593.04088 -40.01429,0 z m 0,0 h 0.0107"
           id="path232"
           inkscape:connector-curvature="0"
           style="stroke:#000000;stroke-width:1.07183158" />
        <g
           style="stroke:none"
           id="g234"
           transform="matrix(1.0699007,0,0,1.0737659,-96.113459,0)">
          <polygon
             points="1206.6,408.1 1169,408.1 1169,944 1206.6,944 "
             id="polygon236"
             style="fill:#ff00ff" />
        </g>
        <path
           d="m 1154.6005,1013.635 0,-575.32375 40.1212,0 0,575.32375 -40.1212,0 z m 0,0 h 0.011"
           id="path238"
           inkscape:connector-curvature="0"
           style="stroke:#000000;stroke-width:1.07183158" />
      </g>
    </g>
    <g
       style="color:#000000;fill:none;stroke:currentColor;stroke-width:1;stroke-linecap:butt;stroke-linejoin:miter"
       id="g240"
       transform="matrix(1.0699007,0,0,1.0737659,-96.113459,0)">
      <path
         d="m 210,54.1 0,889.9 1165,0 0,-889.9 -1165,0 z m 0,0 h 0.01"
         id="path242"
         inkscape:connector-curvature="0"
         style="stroke:#000000" />
    </g>
  </g>
</svg>
